<svg xmlns="http://www.w3.org/2000/svg" viewBox="0 0 28 23" width="28" height="23">
	<style>
		tspan { white-space:pre }
		.shp0 { fill: #ffffff;stroke: #ffffff;stroke-width: 0.7 } 
		.shp1 { fill: #ffffff } 
		.shp2 { fill: #2f88fc;stroke: #2f88fc;stroke-width: 0.7 } 
	</style>
	<path id="Path 4310" fill-rule="evenodd" class="shp0" d="M26.8 7L26.8 18.74C26.8 19.49 26.47 20.2 25.97 20.69C25.48 21.21 24.8 21.52 24.02 21.52L4.78 21.52C4.03 21.52 3.32 21.19 2.82 20.69C2.31 20.2 2 19.52 2 18.74L2 7C2 6.24 2.33 5.54 2.82 5.04C3.32 4.52 4 4.22 4.78 4.22L8.67 4.22L8.67 4.17C8.67 3.58 8.91 3.04 9.31 2.64C9.71 2.24 10.25 2 10.86 2L17.94 2C18.53 2 19.07 2.24 19.47 2.64C19.87 3.01 20.1 3.58 20.1 4.17L20.1 4.22L24.02 4.22C24.8 4.22 25.48 4.52 25.97 5.04C26.49 5.54 26.8 6.22 26.8 7ZM25.57 7C25.57 6.57 25.41 6.2 25.13 5.91C24.84 5.63 24.47 5.47 24.04 5.47L19.49 5.47C19.14 5.47 18.86 5.18 18.86 4.83L18.86 4.15C18.86 3.89 18.76 3.65 18.6 3.49C18.43 3.32 18.2 3.23 17.94 3.23L10.89 3.23C10.63 3.23 10.39 3.32 10.23 3.49C10.06 3.65 9.97 3.89 9.97 4.15L9.97 4.83C9.97 5.18 9.69 5.47 9.33 5.47L4.78 5.47C4.36 5.47 3.98 5.63 3.7 5.91C3.41 6.2 3.25 6.57 3.25 7L3.25 18.74C3.25 19.16 3.41 19.54 3.7 19.82C3.98 20.1 4.36 20.27 4.78 20.27L24.02 20.27C24.44 20.27 24.82 20.1 25.1 19.82C25.39 19.54 25.55 19.16 25.55 18.74L25.57 18.74L25.57 7Z" />
	<path id="Path 4317" class="shp1" d="M3.85 5.36L8.49 4.75L9.41 4.75L9.41 2.92L10.78 2.31L17.55 2.92L19 2.92L19.76 5.36L24.02 5.36L25.92 6.04C25.92 6.04 25.85 8.7 25.92 9.01C26 9.31 25.92 18.14 25.92 18.14L25.16 20.5C25.16 20.5 22.04 20.96 21.81 20.96C21.58 20.96 6.74 20.5 6.74 20.5L3.85 20.5C3.85 20.5 2.56 19.51 2.56 19.28C2.56 19.05 2.94 15.02 2.94 14.56C2.94 14.11 2.56 7.11 2.56 7.11L3.85 5.36Z" />
	<path id="Path 4311" fill-rule="evenodd" class="shp2" d="M18.5 8.77C19.54 9.8 20.2 11.26 20.2 12.87C20.2 14.47 19.56 15.91 18.5 16.97C17.46 18.01 16 18.67 14.4 18.67C12.8 18.67 11.36 18.03 10.3 16.97C9.26 15.93 8.6 14.47 8.6 12.87C8.6 11.26 9.24 9.83 10.3 8.77C11.34 7.73 12.8 7.07 14.4 7.07C16 7.07 17.46 7.73 18.5 8.77ZM18.93 12.89C18.93 11.64 18.43 10.51 17.61 9.68C16.78 8.88 15.65 8.36 14.4 8.36C13.15 8.36 12.02 8.86 11.19 9.68C10.39 10.51 9.87 11.64 9.87 12.89C9.87 14.14 10.37 15.27 11.19 16.1C12.02 16.9 13.15 17.42 14.4 17.42C15.65 17.42 16.78 16.9 17.61 16.1C18.43 15.27 18.95 14.14 18.93 12.89Z" />
	<path id="Ellipse 32" class="shp2" d="M22.79 9.35C22.15 9.35 21.64 8.84 21.64 8.2C21.64 7.56 22.15 7.04 22.79 7.04C23.43 7.04 23.95 7.56 23.95 8.2C23.95 8.84 23.43 9.35 22.79 9.35Z" />
</svg>