<svg xmlns="http://www.w3.org/2000/svg" viewBox="0 0 17 21" width="17" height="21">
	<style>
		tspan { white-space:pre }
		.shp0 { fill: #2f88fc } 
	</style>
	<path id="clip" class="shp0" d="M15.82 7.8C15.48 7.61 15.04 7.72 14.85 8.07L9.34 17.61C8.22 19.54 5.37 19.82 3.57 18.78C1.71 17.7 1.06 15.31 2.14 13.45L8.06 3.2C8.8 1.92 10.43 1.48 11.71 2.22C12.98 2.96 13.42 4.59 12.68 5.87L7.41 15.04C7.03 15.7 6.2 15.95 5.53 15.62C4.88 15.18 5.01 14.39 5.33 13.84L10.31 5.21C10.51 4.87 10.39 4.43 10.05 4.23C9.71 4.04 9.27 4.15 9.07 4.5L4.09 13.12C3.34 14.42 3.54 15.83 4.52 16.65C4.57 16.71 5.05 16.99 5.12 17C6.42 17.5 7.93 17 8.65 15.75L13.92 6.58C15.05 4.62 14.38 2.11 12.42 0.98C10.46 -0.15 7.95 0.52 6.82 2.48L0.9 12.74C-0.57 15.28 0.31 18.55 2.85 20.02C5.55 21.57 9.16 20.78 10.58 18.32L16.08 8.78C16.28 8.44 16.16 8 15.82 7.8L15.82 7.8Z" />
</svg>