<svg xmlns="http://www.w3.org/2000/svg" viewBox="0 0 16 16" width="16" height="16">
	<style>
		tspan { white-space:pre }
		.shp0 { fill: #ffffff;stroke: #ffffff } 
	</style>
	<path id="close" class="shp0" d="M9.44 8.21L14.66 2.98C15 2.64 15 2.09 14.66 1.75C14.32 1.41 13.77 1.41 13.43 1.75L8.21 6.98L2.98 1.75C2.64 1.41 2.09 1.41 1.75 1.75C1.41 2.09 1.41 2.64 1.75 2.98L6.98 8.21L1.75 13.43C1.41 13.77 1.41 14.32 1.75 14.66C1.92 14.83 2.15 14.92 2.37 14.92C2.59 14.92 2.81 14.83 2.98 14.66L8.21 9.44L13.43 14.66C13.6 14.83 13.83 14.92 14.05 14.92C14.27 14.92 14.49 14.83 14.66 14.66C15 14.32 15 13.77 14.66 13.43L9.44 8.21Z" />
</svg>