<svg xmlns="http://www.w3.org/2000/svg" viewBox="0 0 24 22" width="24" height="22">
	<style>
		tspan { white-space:pre }
		.shp0 { fill: #ffffff } 
	</style>
	<path id="Path 4319" class="shp0" d="M6.25 17.5C4.65 17.5 3.22 16.47 2.71 14.95L2.67 14.83C2.55 14.43 2.5 14.09 2.5 13.75L2.5 6.93L0.07 15.03C-0.24 16.22 0.47 17.46 1.67 17.78L17.13 21.93C17.32 21.98 17.51 22 17.7 22C18.7 22 19.61 21.34 19.87 20.36L20.77 17.5L6.25 17.5Z" />
	<path id="Path 4320" class="shp0" d="M9 7C10.1 7 11 6.1 11 5C11 3.9 10.1 3 9 3C7.9 3 7 3.9 7 5C7 6.1 7.9 7 9 7Z" />
	<path id="Path 4321" fill-rule="evenodd" class="shp0" d="M24 2.5L24 13.5C24 14.88 22.88 16 21.5 16L6.5 16C5.12 16 4 14.88 4 13.5L4 2.5C4 1.12 5.12 0 6.5 0L21.5 0C22.88 0 24 1.12 24 2.5ZM6.5 2C6.22 2 6 2.22 6 2.5L6 11.94L8.76 9.18C9.44 8.5 10.56 8.5 11.24 9.18L12.45 10.39L16.16 5.93C16.5 5.53 16.98 5.3 17.5 5.3C18.02 5.31 18.51 5.52 18.84 5.91L22 9.6L22 2.5C22 2.22 21.78 2 21.5 2L6.5 2Z" />
</svg>