<svg xmlns="http://www.w3.org/2000/svg" viewBox="0 0 14 22" width="14" height="22">
	<style>
		tspan { white-space:pre }
		.shp0 { fill: #ff3100 } 
	</style>
	<path id="Path 4318" class="shp0" d="M4.12 3.05L5.12 1.54L6.02 1.04L7.91 1.04L9.42 2.21C9.42 2.21 9.92 3.83 9.92 4.11C9.92 4.39 9.64 11.81 9.64 11.81L8.58 13.03C8.58 13.03 7.69 13.65 7.3 13.65C6.91 13.65 6.02 13.37 6.02 13.37L5.12 12.75L4.51 11.81L4.12 10.36L4.12 3.05Z" />
	<path id="Path 4312" fill-rule="evenodd" class="shp0" d="M10.65 3.68L10.65 10.94C10.65 12.96 9 14.6 6.97 14.6C4.94 14.6 3.28 12.95 3.28 10.92L3.28 3.68C3.28 1.65 4.94 0 6.97 0C9 0 10.65 1.65 10.65 3.68ZM9.11 3.68C9.11 2.5 8.15 1.53 6.97 1.53C5.78 1.53 4.82 2.5 4.82 3.68L4.82 10.92C4.82 12.1 5.78 13.07 6.97 13.07C8.15 13.07 9.11 12.11 9.11 10.94L9.11 3.68Z" />
	<path id="Rectangle 2632" class="shp0" d="M6.2 16.8L7.73 16.8L7.73 20.25L6.2 20.25L6.2 16.8Z" />
	<path id="Path 4313" class="shp0" d="M8.99 19.48L4.95 19.48C4.52 19.48 4.18 19.83 4.18 20.25C4.18 20.68 4.52 21.02 4.95 21.02L8.99 21.02C9.41 21.02 9.75 20.68 9.75 20.25C9.75 19.83 9.41 19.48 8.99 19.48Z" />
	<path id="Path 4314" class="shp0" d="M12.77 9.64C12.35 9.64 12 9.98 12 10.41L12 11.02C12 13.8 9.74 16.06 6.97 16.06C4.19 16.06 1.93 13.8 1.93 11.02L1.93 10.41C1.93 9.98 1.59 9.64 1.16 9.64C0.74 9.64 0.39 9.98 0.39 10.41L0.39 11.02C0.39 14.64 3.34 17.59 6.97 17.59C10.59 17.59 13.54 14.64 13.54 11.02L13.54 10.41C13.54 9.98 13.19 9.64 12.77 9.64Z" />
</svg>