<svg xmlns="http://www.w3.org/2000/svg" viewBox="0 0 18 29" width="18" height="29">
	<style>
		tspan { white-space:pre }
		.shp0 { fill: #ffffff } 
	</style>
	<g id="Group 10039">
		<g id="002-mic">
			<g id="Group 10022">
				<g id="Group 10021">
					<path id="Path 4318" class="shp0" d="M5.08 4.16L6.45 2.11L7.67 1.42L10.26 1.42L12.31 3.02C12.31 3.02 13 5.23 13 5.61C13 5.99 12.62 16.11 12.62 16.11L11.17 17.78C11.17 17.78 9.95 18.62 9.42 18.62C8.89 18.62 7.67 18.24 7.67 18.24L6.45 17.4L5.62 16.11L5.08 14.13L5.08 4.16Z" />
					<path id="Path 4312" fill-rule="evenodd" class="shp0" d="M13.99 5.02L13.99 14.93C13.99 17.68 11.74 19.92 8.97 19.92C6.2 19.92 3.94 17.67 3.94 14.9L3.94 5.02C3.94 2.25 6.2 0 8.97 0C11.74 0 13.99 2.25 13.99 5.02ZM11.9 5.02C11.9 3.41 10.58 2.09 8.97 2.09C7.35 2.09 6.04 3.41 6.04 5.02L6.04 14.9C6.04 16.51 7.35 17.83 8.97 17.83C10.58 17.83 11.9 16.53 11.9 14.93L11.9 5.02Z" />
				</g>
			</g>
			<g id="Group 10024">
				<g id="Group 10023">
					<path id="Rectangle 2632" class="shp0" d="M7.92 22.92L10.01 22.92L10.01 27.63L7.92 27.63L7.92 22.92Z" />
				</g>
			</g>
			<g id="Group 10026">
				<g id="Group 10025">
					<path id="Path 4313" class="shp0" d="M11.72 26.58L6.21 26.58C5.63 26.58 5.16 27.05 5.16 27.63C5.16 28.21 5.63 28.68 6.21 28.68L11.72 28.68C12.3 28.68 12.77 28.21 12.77 27.63C12.77 27.05 12.3 26.58 11.72 26.58Z" />
				</g>
			</g>
			<g id="Group 10028">
				<g id="Group 10027">
					<path id="Path 4314" class="shp0" d="M16.89 13.15C16.31 13.15 15.84 13.62 15.84 14.2L15.84 15.04C15.84 18.83 12.76 21.91 8.97 21.91C5.18 21.91 2.09 18.83 2.09 15.04L2.09 14.2C2.09 13.62 1.62 13.15 1.05 13.15C0.47 13.15 0 13.62 0 14.2L0 15.04C0 19.98 4.02 24 8.97 24C13.91 24 17.93 19.98 17.93 15.04L17.93 14.2C17.93 13.62 17.46 13.15 16.89 13.15Z" />
				</g>
			</g>
		</g>
	</g>
</svg>